<mxfile host="app.diagrams.net" agent="Mozilla/5.0 (Windows NT 10.0; Win64; x64) AppleWebKit/537.36 (KHTML, like Gecko) Chrome/134.0.0.0 Safari/537.36" version="26.1.0">
  <diagram name="Page-1" id="J59PzGIV-IZARhgNcw3m">
    <mxGraphModel dx="1588" dy="908" grid="1" gridSize="10" guides="1" tooltips="1" connect="1" arrows="1" fold="1" page="1" pageScale="1" pageWidth="850" pageHeight="1100" background="#ffffff" math="0" shadow="0">
      <root>
        <mxCell id="0" />
        <mxCell id="1" parent="0" />
        <mxCell id="nNxd906b-8G5X-YyZnIa-1" value="VPC" style="points=[[0,0],[0.25,0],[0.5,0],[0.75,0],[1,0],[1,0.25],[1,0.5],[1,0.75],[1,1],[0.75,1],[0.5,1],[0.25,1],[0,1],[0,0.75],[0,0.5],[0,0.25]];outlineConnect=0;gradientColor=none;html=1;whiteSpace=wrap;fontSize=12;fontStyle=0;container=0;pointerEvents=0;collapsible=0;recursiveResize=0;shape=mxgraph.aws4.group;grIcon=mxgraph.aws4.group_vpc2;strokeColor=#8C4FFF;fillColor=none;verticalAlign=top;align=left;spacingLeft=30;fontColor=#AAB7B8;dashed=0;" parent="1" vertex="1">
          <mxGeometry x="40" y="130" width="390" height="567" as="geometry" />
        </mxCell>
        <mxCell id="nNxd906b-8G5X-YyZnIa-15" value="" style="edgeStyle=orthogonalEdgeStyle;rounded=0;orthogonalLoop=1;jettySize=auto;html=1;startArrow=classic;startFill=1;" parent="1" source="UBAS4pGQuPnV54A2ei4c-3" target="nNxd906b-8G5X-YyZnIa-14" edge="1">
          <mxGeometry relative="1" as="geometry" />
        </mxCell>
        <mxCell id="nNxd906b-8G5X-YyZnIa-14" value="Internet" style="image;aspect=fixed;perimeter=ellipsePerimeter;html=1;align=center;shadow=0;dashed=0;spacingTop=3;image=img/lib/active_directory/internet_cloud.svg;" parent="1" vertex="1">
          <mxGeometry x="315" y="30" width="50" height="31.5" as="geometry" />
        </mxCell>
        <mxCell id="nNxd906b-8G5X-YyZnIa-114" value="Internal EC2 communication" style="shape=table;startSize=20;container=1;collapsible=0;childLayout=tableLayout;strokeColor=default;fontSize=14;labelBackgroundColor=none;gradientColor=none;swimlaneFillColor=default;" parent="1" vertex="1">
          <mxGeometry x="450" y="250" width="250" height="60" as="geometry" />
        </mxCell>
        <mxCell id="nNxd906b-8G5X-YyZnIa-115" value="" style="shape=tableRow;horizontal=0;startSize=0;swimlaneHead=0;swimlaneBody=0;strokeColor=inherit;top=0;left=0;bottom=0;right=0;collapsible=0;dropTarget=0;fillColor=none;points=[[0,0.5],[1,0.5]];portConstraint=eastwest;fontSize=16;swimlaneFillColor=default;" parent="nNxd906b-8G5X-YyZnIa-114" vertex="1">
          <mxGeometry y="20" width="250" height="20" as="geometry" />
        </mxCell>
        <mxCell id="nNxd906b-8G5X-YyZnIa-116" value="Destination" style="shape=partialRectangle;html=1;whiteSpace=wrap;connectable=0;strokeColor=inherit;overflow=hidden;fillColor=none;top=0;left=0;bottom=0;right=0;pointerEvents=1;fontSize=14;swimlaneFillColor=default;" parent="nNxd906b-8G5X-YyZnIa-115" vertex="1">
          <mxGeometry width="126" height="20" as="geometry">
            <mxRectangle width="126" height="20" as="alternateBounds" />
          </mxGeometry>
        </mxCell>
        <mxCell id="nNxd906b-8G5X-YyZnIa-117" value="Target" style="shape=partialRectangle;html=1;whiteSpace=wrap;connectable=0;strokeColor=inherit;overflow=hidden;fillColor=none;top=0;left=0;bottom=0;right=0;pointerEvents=1;fontSize=14;swimlaneFillColor=default;" parent="nNxd906b-8G5X-YyZnIa-115" vertex="1">
          <mxGeometry x="126" width="124" height="20" as="geometry">
            <mxRectangle width="124" height="20" as="alternateBounds" />
          </mxGeometry>
        </mxCell>
        <mxCell id="nNxd906b-8G5X-YyZnIa-118" value="" style="shape=tableRow;horizontal=0;startSize=0;swimlaneHead=0;swimlaneBody=0;strokeColor=inherit;top=0;left=0;bottom=0;right=0;collapsible=0;dropTarget=0;fillColor=none;points=[[0,0.5],[1,0.5]];portConstraint=eastwest;fontSize=16;swimlaneFillColor=default;" parent="nNxd906b-8G5X-YyZnIa-114" vertex="1">
          <mxGeometry y="40" width="250" height="20" as="geometry" />
        </mxCell>
        <mxCell id="nNxd906b-8G5X-YyZnIa-119" value="internal IPs &lt;b&gt;range&lt;/b&gt;" style="shape=partialRectangle;html=1;whiteSpace=wrap;connectable=0;strokeColor=inherit;overflow=hidden;fillColor=none;top=0;left=0;bottom=0;right=0;pointerEvents=1;fontSize=14;swimlaneFillColor=default;" parent="nNxd906b-8G5X-YyZnIa-118" vertex="1">
          <mxGeometry width="126" height="20" as="geometry">
            <mxRectangle width="126" height="20" as="alternateBounds" />
          </mxGeometry>
        </mxCell>
        <mxCell id="nNxd906b-8G5X-YyZnIa-120" value="local" style="shape=partialRectangle;html=1;whiteSpace=wrap;connectable=0;strokeColor=inherit;overflow=hidden;fillColor=none;top=0;left=0;bottom=0;right=0;pointerEvents=1;fontSize=14;swimlaneFillColor=default;" parent="nNxd906b-8G5X-YyZnIa-118" vertex="1">
          <mxGeometry x="126" width="124" height="20" as="geometry">
            <mxRectangle width="124" height="20" as="alternateBounds" />
          </mxGeometry>
        </mxCell>
        <mxCell id="nNxd906b-8G5X-YyZnIa-122" value="&lt;font style=&quot;font-size: 14px; background-color: light-dark(#ffffff, var(--ge-dark-color, #121212));&quot;&gt;&amp;nbsp;- IGW is created at VPC level&lt;/font&gt;&lt;div&gt;&lt;font style=&quot;font-size: 14px; background-color: light-dark(#ffffff, var(--ge-dark-color, #121212));&quot;&gt;&amp;nbsp;- Route tables are created at VPC level&lt;/font&gt;&lt;/div&gt;&lt;div&gt;&lt;span style=&quot;background-color: light-dark(#ffffff, var(--ge-dark-color, #121212));&quot;&gt;&lt;font style=&quot;font-size: 14px;&quot;&gt;&amp;nbsp;- &lt;/font&gt;&lt;font style=&quot;font-size: 14px;&quot;&gt;&lt;font style=&quot;&quot;&gt;NGW is created at public subnet level&lt;br&gt;&amp;nbsp;- Mapping public-to-private IP happens at IGW level&lt;br&gt;&amp;nbsp; &amp;nbsp; So, communication actually happens like:&lt;/font&gt;&lt;/font&gt;&lt;/span&gt;&lt;/div&gt;&lt;div&gt;&lt;span style=&quot;background-color: light-dark(#ffffff, var(--ge-dark-color, #121212));&quot;&gt;&lt;font style=&quot;font-size: 14px;&quot;&gt;&lt;font style=&quot;&quot;&gt;&amp;nbsp; &amp;nbsp; - IGW - Elastic LB&lt;/font&gt;&lt;/font&gt;&lt;/span&gt;&lt;/div&gt;&lt;div&gt;&lt;span style=&quot;background-color: light-dark(#ffffff, var(--ge-dark-color, #121212));&quot;&gt;&lt;font style=&quot;font-size: 14px;&quot;&gt;&lt;font style=&quot;&quot;&gt;&amp;nbsp; &amp;nbsp; - IGW - EC2&lt;/font&gt;&lt;/font&gt;&lt;/span&gt;&lt;/div&gt;&lt;div&gt;&lt;span style=&quot;background-color: light-dark(#ffffff, var(--ge-dark-color, #121212));&quot;&gt;&lt;font style=&quot;font-size: 14px;&quot;&gt;&lt;font style=&quot;&quot;&gt;&amp;nbsp; &amp;nbsp; - IGW - NGW&lt;br&gt;&lt;br&gt;&amp;nbsp;- Public LB is created in public subnet&lt;/font&gt;&lt;/font&gt;&lt;/span&gt;&lt;/div&gt;" style="rounded=0;whiteSpace=wrap;html=1;align=left;" parent="1" vertex="1">
          <mxGeometry x="450" y="330" width="340" height="180" as="geometry" />
        </mxCell>
        <mxCell id="UBAS4pGQuPnV54A2ei4c-3" value="&lt;b&gt;IGW&lt;/b&gt;" style="sketch=0;outlineConnect=0;fontColor=#232F3E;gradientColor=none;fillColor=#8C4FFF;strokeColor=none;dashed=0;verticalLabelPosition=bottom;verticalAlign=top;align=center;html=1;fontSize=12;fontStyle=0;aspect=fixed;pointerEvents=1;shape=mxgraph.aws4.internet_gateway;" parent="1" vertex="1">
          <mxGeometry x="325" y="120" width="30" height="30" as="geometry" />
        </mxCell>
        <mxCell id="nNxd906b-8G5X-YyZnIa-13" style="edgeStyle=orthogonalEdgeStyle;rounded=0;orthogonalLoop=1;jettySize=auto;html=1;startArrow=classic;startFill=1;exitX=0.726;exitY=0;exitDx=0;exitDy=0;exitPerimeter=0;" parent="1" source="nNxd906b-8G5X-YyZnIa-106" target="UBAS4pGQuPnV54A2ei4c-3" edge="1">
          <mxGeometry relative="1" as="geometry">
            <mxPoint x="340" y="180" as="sourcePoint" />
            <Array as="points" />
          </mxGeometry>
        </mxCell>
        <mxCell id="oJM-QH1wbEqwgT6jP4RW-5" value="Public subnet" style="points=[[0,0],[0.25,0],[0.5,0],[0.75,0],[1,0],[1,0.25],[1,0.5],[1,0.75],[1,1],[0.75,1],[0.5,1],[0.25,1],[0,1],[0,0.75],[0,0.5],[0,0.25]];outlineConnect=0;gradientColor=none;html=1;whiteSpace=wrap;fontSize=12;fontStyle=0;container=1;pointerEvents=0;collapsible=0;recursiveResize=0;shape=mxgraph.aws4.group;grIcon=mxgraph.aws4.group_security_group;grStroke=0;strokeColor=#7AA116;fillColor=#F2F6E8;verticalAlign=top;align=left;spacingLeft=30;fontColor=#248814;dashed=0;" parent="1" vertex="1">
          <mxGeometry x="70" y="230" width="330" height="257" as="geometry" />
        </mxCell>
        <mxCell id="vzpLXu1XSNqRQezVzqwZ-9" value="" style="group" vertex="1" connectable="0" parent="oJM-QH1wbEqwgT6jP4RW-5">
          <mxGeometry x="10" y="147" width="120" height="100" as="geometry" />
        </mxCell>
        <mxCell id="vzpLXu1XSNqRQezVzqwZ-7" value="Target group" style="text;html=1;align=center;verticalAlign=middle;whiteSpace=wrap;rounded=0;" vertex="1" parent="vzpLXu1XSNqRQezVzqwZ-9">
          <mxGeometry width="80" height="20" as="geometry" />
        </mxCell>
        <mxCell id="vzpLXu1XSNqRQezVzqwZ-5" value="" style="rounded=0;whiteSpace=wrap;html=1;fillColor=none;dashed=1;" vertex="1" parent="vzpLXu1XSNqRQezVzqwZ-9">
          <mxGeometry width="120" height="100" as="geometry" />
        </mxCell>
        <mxCell id="nNxd906b-8G5X-YyZnIa-3" value="EC2" style="sketch=0;points=[[0,0,0],[0.25,0,0],[0.5,0,0],[0.75,0,0],[1,0,0],[0,1,0],[0.25,1,0],[0.5,1,0],[0.75,1,0],[1,1,0],[0,0.25,0],[0,0.5,0],[0,0.75,0],[1,0.25,0],[1,0.5,0],[1,0.75,0]];outlineConnect=0;fontColor=#232F3E;fillColor=#ED7100;strokeColor=#ffffff;dashed=0;verticalLabelPosition=bottom;verticalAlign=top;align=center;html=1;fontSize=12;fontStyle=0;aspect=fixed;shape=mxgraph.aws4.resourceIcon;resIcon=mxgraph.aws4.ec2;" parent="oJM-QH1wbEqwgT6jP4RW-5" vertex="1">
          <mxGeometry x="19" y="179" width="38" height="38" as="geometry" />
        </mxCell>
        <mxCell id="nNxd906b-8G5X-YyZnIa-4" value="EC2" style="sketch=0;points=[[0,0,0],[0.25,0,0],[0.5,0,0],[0.75,0,0],[1,0,0],[0,1,0],[0.25,1,0],[0.5,1,0],[0.75,1,0],[1,1,0],[0,0.25,0],[0,0.5,0],[0,0.75,0],[1,0.25,0],[1,0.5,0],[1,0.75,0]];outlineConnect=0;fontColor=#232F3E;fillColor=#ED7100;strokeColor=#ffffff;dashed=0;verticalLabelPosition=bottom;verticalAlign=top;align=center;html=1;fontSize=12;fontStyle=0;aspect=fixed;shape=mxgraph.aws4.resourceIcon;resIcon=mxgraph.aws4.ec2;" parent="oJM-QH1wbEqwgT6jP4RW-5" vertex="1">
          <mxGeometry x="79" y="178" width="38" height="38" as="geometry" />
        </mxCell>
        <mxCell id="nNxd906b-8G5X-YyZnIa-5" value="EC2" style="sketch=0;points=[[0,0,0],[0.25,0,0],[0.5,0,0],[0.75,0,0],[1,0,0],[0,1,0],[0.25,1,0],[0.5,1,0],[0.75,1,0],[1,1,0],[0,0.25,0],[0,0.5,0],[0,0.75,0],[1,0.25,0],[1,0.5,0],[1,0.75,0]];outlineConnect=0;fontColor=#232F3E;fillColor=#ED7100;strokeColor=#ffffff;dashed=0;verticalLabelPosition=bottom;verticalAlign=top;align=center;html=1;fontSize=12;fontStyle=0;aspect=fixed;shape=mxgraph.aws4.resourceIcon;resIcon=mxgraph.aws4.ec2;" parent="oJM-QH1wbEqwgT6jP4RW-5" vertex="1">
          <mxGeometry x="163" y="179" width="38" height="38" as="geometry" />
        </mxCell>
        <mxCell id="UBAS4pGQuPnV54A2ei4c-2" value="&lt;b&gt;NGW&lt;/b&gt;&lt;div&gt;(Elastic IP)&lt;/div&gt;" style="sketch=0;outlineConnect=0;fontColor=#232F3E;gradientColor=none;fillColor=#8C4FFF;strokeColor=none;dashed=0;verticalLabelPosition=bottom;verticalAlign=top;align=center;html=1;fontSize=12;fontStyle=0;aspect=fixed;pointerEvents=1;shape=mxgraph.aws4.nat_gateway;" parent="oJM-QH1wbEqwgT6jP4RW-5" vertex="1">
          <mxGeometry x="257" y="180" width="22" height="22" as="geometry" />
        </mxCell>
        <mxCell id="vzpLXu1XSNqRQezVzqwZ-8" style="edgeStyle=orthogonalEdgeStyle;rounded=0;orthogonalLoop=1;jettySize=auto;html=1;entryX=0.75;entryY=0;entryDx=0;entryDy=0;dashed=1;startArrow=classic;startFill=1;" edge="1" parent="oJM-QH1wbEqwgT6jP4RW-5" source="vzpLXu1XSNqRQezVzqwZ-1" target="vzpLXu1XSNqRQezVzqwZ-5">
          <mxGeometry relative="1" as="geometry">
            <Array as="points">
              <mxPoint x="100" y="80" />
            </Array>
          </mxGeometry>
        </mxCell>
        <mxCell id="vzpLXu1XSNqRQezVzqwZ-1" value="Elastic LB" style="sketch=0;points=[[0,0,0],[0.25,0,0],[0.5,0,0],[0.75,0,0],[1,0,0],[0,1,0],[0.25,1,0],[0.5,1,0],[0.75,1,0],[1,1,0],[0,0.25,0],[0,0.5,0],[0,0.75,0],[1,0.25,0],[1,0.5,0],[1,0.75,0]];outlineConnect=0;fontColor=#232F3E;fillColor=#ED7100;strokeColor=#ffffff;dashed=0;verticalLabelPosition=bottom;verticalAlign=top;align=center;html=1;fontSize=12;fontStyle=0;aspect=fixed;shape=mxgraph.aws4.resourceIcon;resIcon=mxgraph.aws4.elastic_load_balancing;" vertex="1" parent="oJM-QH1wbEqwgT6jP4RW-5">
          <mxGeometry x="23" y="57" width="30" height="30" as="geometry" />
        </mxCell>
        <mxCell id="oJM-QH1wbEqwgT6jP4RW-4" value="Private subnet" style="points=[[0,0],[0.25,0],[0.5,0],[0.75,0],[1,0],[1,0.25],[1,0.5],[1,0.75],[1,1],[0.75,1],[0.5,1],[0.25,1],[0,1],[0,0.75],[0,0.5],[0,0.25]];outlineConnect=0;gradientColor=none;html=1;whiteSpace=wrap;fontSize=12;fontStyle=0;container=1;pointerEvents=0;collapsible=0;recursiveResize=0;shape=mxgraph.aws4.group;grIcon=mxgraph.aws4.group_security_group;grStroke=0;strokeColor=#00A4A6;fillColor=#E6F6F7;verticalAlign=top;align=left;spacingLeft=30;fontColor=#147EBA;dashed=0;" parent="1" vertex="1">
          <mxGeometry x="70" y="547" width="330" height="140" as="geometry" />
        </mxCell>
        <mxCell id="nNxd906b-8G5X-YyZnIa-7" value="EC2" style="sketch=0;points=[[0,0,0],[0.25,0,0],[0.5,0,0],[0.75,0,0],[1,0,0],[0,1,0],[0.25,1,0],[0.5,1,0],[0.75,1,0],[1,1,0],[0,0.25,0],[0,0.5,0],[0,0.75,0],[1,0.25,0],[1,0.5,0],[1,0.75,0]];outlineConnect=0;fontColor=#232F3E;fillColor=#ED7100;strokeColor=#ffffff;dashed=0;verticalLabelPosition=bottom;verticalAlign=top;align=center;html=1;fontSize=12;fontStyle=0;aspect=fixed;shape=mxgraph.aws4.resourceIcon;resIcon=mxgraph.aws4.ec2;" parent="oJM-QH1wbEqwgT6jP4RW-4" vertex="1">
          <mxGeometry x="20" y="70" width="38" height="38" as="geometry" />
        </mxCell>
        <mxCell id="nNxd906b-8G5X-YyZnIa-8" value="EC2" style="sketch=0;points=[[0,0,0],[0.25,0,0],[0.5,0,0],[0.75,0,0],[1,0,0],[0,1,0],[0.25,1,0],[0.5,1,0],[0.75,1,0],[1,1,0],[0,0.25,0],[0,0.5,0],[0,0.75,0],[1,0.25,0],[1,0.5,0],[1,0.75,0]];outlineConnect=0;fontColor=#232F3E;fillColor=#ED7100;strokeColor=#ffffff;dashed=0;verticalLabelPosition=bottom;verticalAlign=top;align=center;html=1;fontSize=12;fontStyle=0;aspect=fixed;shape=mxgraph.aws4.resourceIcon;resIcon=mxgraph.aws4.ec2;" parent="oJM-QH1wbEqwgT6jP4RW-4" vertex="1">
          <mxGeometry x="80" y="70" width="38" height="38" as="geometry" />
        </mxCell>
        <mxCell id="nNxd906b-8G5X-YyZnIa-9" value="EC2" style="sketch=0;points=[[0,0,0],[0.25,0,0],[0.5,0,0],[0.75,0,0],[1,0,0],[0,1,0],[0.25,1,0],[0.5,1,0],[0.75,1,0],[1,1,0],[0,0.25,0],[0,0.5,0],[0,0.75,0],[1,0.25,0],[1,0.5,0],[1,0.75,0]];outlineConnect=0;fontColor=#232F3E;fillColor=#ED7100;strokeColor=#ffffff;dashed=0;verticalLabelPosition=bottom;verticalAlign=top;align=center;html=1;fontSize=12;fontStyle=0;aspect=fixed;shape=mxgraph.aws4.resourceIcon;resIcon=mxgraph.aws4.ec2;" parent="oJM-QH1wbEqwgT6jP4RW-4" vertex="1">
          <mxGeometry x="140" y="70" width="38" height="38" as="geometry" />
        </mxCell>
        <mxCell id="nNxd906b-8G5X-YyZnIa-11" value="" style="edgeStyle=orthogonalEdgeStyle;rounded=0;orthogonalLoop=1;jettySize=auto;html=1;exitX=0.717;exitY=0.022;exitDx=0;exitDy=0;exitPerimeter=0;" parent="1" source="nNxd906b-8G5X-YyZnIa-99" target="UBAS4pGQuPnV54A2ei4c-2" edge="1">
          <mxGeometry relative="1" as="geometry">
            <mxPoint x="301" y="507.0000000000001" as="sourcePoint" />
            <Array as="points">
              <mxPoint x="339" y="517" />
              <mxPoint x="338" y="517" />
            </Array>
          </mxGeometry>
        </mxCell>
        <mxCell id="nNxd906b-8G5X-YyZnIa-16" style="edgeStyle=orthogonalEdgeStyle;rounded=0;orthogonalLoop=1;jettySize=auto;html=1;dashed=1;entryX=0.335;entryY=1.111;entryDx=0;entryDy=0;entryPerimeter=0;" parent="1" source="nNxd906b-8G5X-YyZnIa-9" target="nNxd906b-8G5X-YyZnIa-103" edge="1">
          <mxGeometry relative="1" as="geometry">
            <mxPoint x="301" y="567" as="targetPoint" />
            <Array as="points">
              <mxPoint x="270" y="636" />
            </Array>
          </mxGeometry>
        </mxCell>
        <mxCell id="nNxd906b-8G5X-YyZnIa-99" value="Private subnet route table" style="shape=table;startSize=20;container=1;collapsible=0;childLayout=tableLayout;strokeColor=default;fontSize=14;labelBackgroundColor=none;gradientColor=none;swimlaneFillColor=default;" parent="1" vertex="1">
          <mxGeometry x="210" y="517" width="180" height="60" as="geometry" />
        </mxCell>
        <mxCell id="nNxd906b-8G5X-YyZnIa-100" value="" style="shape=tableRow;horizontal=0;startSize=0;swimlaneHead=0;swimlaneBody=0;strokeColor=inherit;top=0;left=0;bottom=0;right=0;collapsible=0;dropTarget=0;fillColor=none;points=[[0,0.5],[1,0.5]];portConstraint=eastwest;fontSize=16;swimlaneFillColor=default;" parent="nNxd906b-8G5X-YyZnIa-99" vertex="1">
          <mxGeometry y="20" width="180" height="20" as="geometry" />
        </mxCell>
        <mxCell id="nNxd906b-8G5X-YyZnIa-101" value="Destination" style="shape=partialRectangle;html=1;whiteSpace=wrap;connectable=0;strokeColor=inherit;overflow=hidden;fillColor=none;top=0;left=0;bottom=0;right=0;pointerEvents=1;fontSize=14;swimlaneFillColor=default;" parent="nNxd906b-8G5X-YyZnIa-100" vertex="1">
          <mxGeometry width="91" height="20" as="geometry">
            <mxRectangle width="91" height="20" as="alternateBounds" />
          </mxGeometry>
        </mxCell>
        <mxCell id="nNxd906b-8G5X-YyZnIa-102" value="Target" style="shape=partialRectangle;html=1;whiteSpace=wrap;connectable=0;strokeColor=inherit;overflow=hidden;fillColor=none;top=0;left=0;bottom=0;right=0;pointerEvents=1;fontSize=14;swimlaneFillColor=default;" parent="nNxd906b-8G5X-YyZnIa-100" vertex="1">
          <mxGeometry x="91" width="89" height="20" as="geometry">
            <mxRectangle width="89" height="20" as="alternateBounds" />
          </mxGeometry>
        </mxCell>
        <mxCell id="nNxd906b-8G5X-YyZnIa-103" value="" style="shape=tableRow;horizontal=0;startSize=0;swimlaneHead=0;swimlaneBody=0;strokeColor=inherit;top=0;left=0;bottom=0;right=0;collapsible=0;dropTarget=0;fillColor=none;points=[[0,0.5],[1,0.5]];portConstraint=eastwest;fontSize=16;swimlaneFillColor=default;" parent="nNxd906b-8G5X-YyZnIa-99" vertex="1">
          <mxGeometry y="40" width="180" height="20" as="geometry" />
        </mxCell>
        <mxCell id="nNxd906b-8G5X-YyZnIa-104" value="0.0.0.0/0" style="shape=partialRectangle;html=1;whiteSpace=wrap;connectable=0;strokeColor=inherit;overflow=hidden;fillColor=none;top=0;left=0;bottom=0;right=0;pointerEvents=1;fontSize=14;swimlaneFillColor=default;" parent="nNxd906b-8G5X-YyZnIa-103" vertex="1">
          <mxGeometry width="91" height="20" as="geometry">
            <mxRectangle width="91" height="20" as="alternateBounds" />
          </mxGeometry>
        </mxCell>
        <mxCell id="nNxd906b-8G5X-YyZnIa-105" value="NGW-ID" style="shape=partialRectangle;html=1;whiteSpace=wrap;connectable=0;strokeColor=inherit;overflow=hidden;fillColor=none;top=0;left=0;bottom=0;right=0;pointerEvents=1;fontSize=14;swimlaneFillColor=default;" parent="nNxd906b-8G5X-YyZnIa-103" vertex="1">
          <mxGeometry x="91" width="89" height="20" as="geometry">
            <mxRectangle width="89" height="20" as="alternateBounds" />
          </mxGeometry>
        </mxCell>
        <mxCell id="nNxd906b-8G5X-YyZnIa-106" value="Public subnet route table" style="shape=table;startSize=20;container=1;collapsible=0;childLayout=tableLayout;strokeColor=default;fontSize=14;labelBackgroundColor=none;gradientColor=none;swimlaneFillColor=default;" parent="1" vertex="1">
          <mxGeometry x="210" y="202" width="180" height="60" as="geometry" />
        </mxCell>
        <mxCell id="nNxd906b-8G5X-YyZnIa-107" value="" style="shape=tableRow;horizontal=0;startSize=0;swimlaneHead=0;swimlaneBody=0;strokeColor=inherit;top=0;left=0;bottom=0;right=0;collapsible=0;dropTarget=0;fillColor=none;points=[[0,0.5],[1,0.5]];portConstraint=eastwest;fontSize=16;swimlaneFillColor=default;" parent="nNxd906b-8G5X-YyZnIa-106" vertex="1">
          <mxGeometry y="20" width="180" height="20" as="geometry" />
        </mxCell>
        <mxCell id="nNxd906b-8G5X-YyZnIa-108" value="Destination" style="shape=partialRectangle;html=1;whiteSpace=wrap;connectable=0;strokeColor=inherit;overflow=hidden;fillColor=none;top=0;left=0;bottom=0;right=0;pointerEvents=1;fontSize=14;swimlaneFillColor=default;" parent="nNxd906b-8G5X-YyZnIa-107" vertex="1">
          <mxGeometry width="91" height="20" as="geometry">
            <mxRectangle width="91" height="20" as="alternateBounds" />
          </mxGeometry>
        </mxCell>
        <mxCell id="nNxd906b-8G5X-YyZnIa-109" value="Target" style="shape=partialRectangle;html=1;whiteSpace=wrap;connectable=0;strokeColor=inherit;overflow=hidden;fillColor=none;top=0;left=0;bottom=0;right=0;pointerEvents=1;fontSize=14;swimlaneFillColor=default;" parent="nNxd906b-8G5X-YyZnIa-107" vertex="1">
          <mxGeometry x="91" width="89" height="20" as="geometry">
            <mxRectangle width="89" height="20" as="alternateBounds" />
          </mxGeometry>
        </mxCell>
        <mxCell id="nNxd906b-8G5X-YyZnIa-110" value="" style="shape=tableRow;horizontal=0;startSize=0;swimlaneHead=0;swimlaneBody=0;strokeColor=inherit;top=0;left=0;bottom=0;right=0;collapsible=0;dropTarget=0;fillColor=none;points=[[0,0.5],[1,0.5]];portConstraint=eastwest;fontSize=16;swimlaneFillColor=default;" parent="nNxd906b-8G5X-YyZnIa-106" vertex="1">
          <mxGeometry y="40" width="180" height="20" as="geometry" />
        </mxCell>
        <mxCell id="nNxd906b-8G5X-YyZnIa-111" value="0.0.0.0/0" style="shape=partialRectangle;html=1;whiteSpace=wrap;connectable=0;strokeColor=inherit;overflow=hidden;fillColor=none;top=0;left=0;bottom=0;right=0;pointerEvents=1;fontSize=14;swimlaneFillColor=default;" parent="nNxd906b-8G5X-YyZnIa-110" vertex="1">
          <mxGeometry width="91" height="20" as="geometry">
            <mxRectangle width="91" height="20" as="alternateBounds" />
          </mxGeometry>
        </mxCell>
        <mxCell id="nNxd906b-8G5X-YyZnIa-112" value="IGW-ID" style="shape=partialRectangle;html=1;whiteSpace=wrap;connectable=0;strokeColor=inherit;overflow=hidden;fillColor=none;top=0;left=0;bottom=0;right=0;pointerEvents=1;fontSize=14;swimlaneFillColor=default;" parent="nNxd906b-8G5X-YyZnIa-110" vertex="1">
          <mxGeometry x="91" width="89" height="20" as="geometry">
            <mxRectangle width="89" height="20" as="alternateBounds" />
          </mxGeometry>
        </mxCell>
        <mxCell id="nNxd906b-8G5X-YyZnIa-113" style="edgeStyle=orthogonalEdgeStyle;rounded=0;orthogonalLoop=1;jettySize=auto;html=1;dashed=1;entryX=0.373;entryY=0.985;entryDx=0;entryDy=0;entryPerimeter=0;" parent="1" source="UBAS4pGQuPnV54A2ei4c-2" target="nNxd906b-8G5X-YyZnIa-110" edge="1">
          <mxGeometry relative="1" as="geometry">
            <Array as="points">
              <mxPoint x="338" y="340" />
              <mxPoint x="277" y="340" />
            </Array>
          </mxGeometry>
        </mxCell>
        <mxCell id="nNxd906b-8G5X-YyZnIa-17" style="edgeStyle=orthogonalEdgeStyle;rounded=0;orthogonalLoop=1;jettySize=auto;html=1;dashed=1;entryX=0.238;entryY=1.038;entryDx=0;entryDy=0;entryPerimeter=0;" parent="1" source="nNxd906b-8G5X-YyZnIa-5" target="nNxd906b-8G5X-YyZnIa-110" edge="1">
          <mxGeometry relative="1" as="geometry">
            <mxPoint x="250" y="270" as="targetPoint" />
            <Array as="points" />
          </mxGeometry>
        </mxCell>
        <mxCell id="vzpLXu1XSNqRQezVzqwZ-11" style="edgeStyle=orthogonalEdgeStyle;rounded=0;orthogonalLoop=1;jettySize=auto;html=1;entryX=0.127;entryY=0.979;entryDx=0;entryDy=0;entryPerimeter=0;endArrow=classic;startFill=1;dashed=1;endFill=1;startArrow=classic;" edge="1" parent="1" source="vzpLXu1XSNqRQezVzqwZ-1" target="nNxd906b-8G5X-YyZnIa-110">
          <mxGeometry relative="1" as="geometry">
            <Array as="points">
              <mxPoint x="233" y="300" />
            </Array>
          </mxGeometry>
        </mxCell>
      </root>
    </mxGraphModel>
  </diagram>
</mxfile>
